<?xml version="1.0" encoding="UTF-8" standalone="no"?>
<!-- Created with Inkscape (http://www.inkscape.org/) -->

<svg
   version="1.1"
   id="svg2"
   width="300"
   height="300"
   viewBox="0 0 300 300"
   sodipodi:docname="Lirik-SVG.svg"
   inkscape:version="1.2.2 (732a01da63, 2022-12-09)"
   xmlns:inkscape="http://www.inkscape.org/namespaces/inkscape"
   xmlns:sodipodi="http://sodipodi.sourceforge.net/DTD/sodipodi-0.dtd"
   xmlns="http://www.w3.org/2000/svg"
   xmlns:svg="http://www.w3.org/2000/svg">
  <defs
     id="defs6" />
  <sodipodi:namedview
     id="namedview4"
     pagecolor="#ffffff"
     bordercolor="#000000"
     borderopacity="0.25"
     inkscape:showpageshadow="2"
     inkscape:pageopacity="0.0"
     inkscape:pagecheckerboard="0"
     inkscape:deskcolor="#d1d1d1"
     showgrid="false"
     inkscape:zoom="2.88"
     inkscape:cx="92.881944"
     inkscape:cy="150.17361"
     inkscape:window-width="1920"
     inkscape:window-height="1051"
     inkscape:window-x="-9"
     inkscape:window-y="-9"
     inkscape:window-maximized="1"
     inkscape:current-layer="g8" />
  <g
     inkscape:groupmode="layer"
     inkscape:label="Image"
     id="g8">
    <path
       style="fill:#000000"
       d="m 71.777598,276.93413 c -3.715493,-24.55801 -3.736845,-32.27105 -0.127965,-46.22478 2.141675,-8.28079 7.446458,-19.73429 11.75851,-25.38768 l 2.637647,-3.45813 -2.40484,-1.58744 C 82.318289,199.40301 77.631766,195.03683 73.226455,190.57349 58.819422,175.97668 53.130844,161.43614 54.011528,141.45833 54.598561,128.14182 57.65287,118.0076 64.875736,105.41082 l 4.838702,-8.438758 -2.600412,-9.065492 c -2.226439,-7.761753 -2.544922,-10.531149 -2.214557,-19.256865 0.21222,-5.605254 0.776591,-10.814954 1.254157,-11.57711 0.707388,-1.128935 3.853257,-1.275525 16.975393,-0.791015 16.107952,0.594755 23.119211,1.703896 35.936481,5.684944 6.02958,1.872791 7.63303,1.996521 13.69155,1.05651 18.07361,-2.804217 43.29358,0.523783 59.43602,7.843112 5.50237,2.494895 6.97223,2.736596 14.12427,2.322571 9.60517,-0.556034 24.54631,0.961245 38.29553,3.888927 13.94189,2.968707 13.80105,2.825398 12.29672,12.511878 -1.24547,8.019681 -4.92607,17.172028 -10.24246,25.469388 -2.88356,4.5004 -2.9153,4.69252 -1.4579,8.82323 0.81941,2.32246 2.22686,8.1272 3.12765,12.89943 3.41228,18.07746 -0.057,37.98575 -8.95573,51.39229 -4.76445,7.17794 -15.73849,17.54687 -22.91875,21.655 l -5.57385,3.18903 2.79396,6.22022 c 7.50586,16.71037 8.37994,30.15718 3.81694,58.72022 l -3.2749,20.5 -69.55639,0.25674 -69.556379,0.25675 z m 80.745862,-66.74518 c 1.97458,-1.02472 3.75312,-2.35204 3.95231,-2.9496 0.94881,-2.84644 -21.77585,-6.57816 -24.35463,-3.99938 -0.91646,0.91646 1.33762,3.48505 6.11497,6.96817 4.4998,3.28076 7.93739,3.27615 14.28735,-0.0192 z m 40.99477,-23.7813 c 2.04483,-0.85288 5.21981,-2.99038 7.05551,-4.75 3.79144,-3.63433 7.53986,-10.27951 6.62942,-11.75263 -1.22194,-1.97715 -10.74898,-6.07431 -15.40733,-6.62602 -9.11476,-1.07951 -16.77811,3.07127 -21.42153,11.60277 -3.1422,5.77324 -2.82346,6.89515 2.7825,9.79411 6.92182,3.57941 14.4055,4.21591 20.36143,1.73177 z m -68.44517,-9.55698 c 3.07674,-1.40186 3.36054,-3.664 1.22057,-9.7293 -3.45924,-9.80453 -10.27992,-14.65418 -20.55752,-14.61683 -8.017834,0.0291 -13.999999,1.91164 -13.999999,4.40562 0,3.09632 2.929007,10.26631 5.652588,13.83711 1.437343,1.88445 4.916011,4.52825 7.730381,5.8751 4.25693,2.03721 6.14016,2.36418 11.20398,1.94524 3.34782,-0.27697 7.28532,-1.04959 8.75,-1.71694 z"
       id="path170" />
  </g>
</svg>
